<svg width="14" height="14" viewBox="0 0 14 14" fill="none" xmlns="http://www.w3.org/2000/svg">
<path fill-rule="evenodd" clip-rule="evenodd" d="M10.7799 3.02099C11.3376 4.63189 10.8131 6.41926 9.47333 7.47335C11.765 8.38284 13.3676 10.4829 13.64 12.9333C13.679 13.2974 13.4171 13.6248 13.0533 13.6667H12.98C12.6386 13.6687 12.3509 13.4126 12.3133 13.0733C12.0102 10.3752 9.72847 8.33536 7.01333 8.33536C4.29819 8.33536 2.01642 10.3752 1.71333 13.0733C1.67283 13.4415 1.34152 13.7072 0.973328 13.6667C0.605138 13.6262 0.339494 13.2949 0.379995 12.9267C0.651073 10.4834 2.24473 8.38758 4.52666 7.47335C3.1869 6.41926 2.6624 4.63189 3.22014 3.02099C3.77787 1.41009 5.29528 0.329681 7 0.329681C8.70471 0.329681 10.2221 1.41009 10.7799 3.02099ZM4.33333 4.33335C4.33333 5.8061 5.52724 7.00001 7 7.00001C7.70724 7.00001 8.38552 6.71906 8.88561 6.21896C9.38571 5.71887 9.66666 5.04059 9.66666 4.33335C9.66666 2.86059 8.47275 1.66668 7 1.66668C5.52724 1.66668 4.33333 2.86059 4.33333 4.33335Z" fill="#555555"/>
</svg>
